# xmcd
#
# Track frame offsets: 
#        150
#        17621
#        34062
#        47292
#        60604
#        76735
#        90048
#        102434
#        123032
#        141140
#        152315
#        164694
#        179199
#        195082
#        210098
#        231241
#        244086
#        257897
#
# Disc length: 3616 seconds
#
# Revision: 2
# Processed by: cddbd v1.5.2PL0 Copyright (c) Steve Scherf et al.
# Submitted via: ExactAudioCopy v1.0b3
#
DISCID=d40e1e12
DTITLE=Hank Williams, Jr. - 35 Biggest Hits (Diac 2)
DYEAR=2015
DGENRE=Country
TTITLE0=The Conversation
TTITLE1=Man Of Steel
TTITLE2=Attitude Adjustment
TTITLE3=All My Rowdy Friends Are Coming Over Tonight
TTITLE4=Major Moves
TTITLE5=I'm For Love
TTITLE6=This Ain't Dallas
TTITLE7=Ain't Misbehavin'
TTITLE8=Country State Of Mind
TTITLE9=Mind Your Own Business
TTITLE10=Born To Boogie
TTITLE11=Heaven Can't Be Found
TTITLE12=Young Country
TTITLE13=If The South Woulda Won
TTITLE14=My Name Is Bocephus
TTITLE15=There's A Tear In My Beer
TTITLE16=Good Friends, Good Whiskey, Good Lovin'
TTITLE17=Stoned At The Jukebox (Remix)
EXTD=
EXTT0=
EXTT1=
EXTT2=
EXTT3=
EXTT4=
EXTT5=
EXTT6=
EXTT7=
EXTT8=
EXTT9=
EXTT10=
EXTT11=
EXTT12=
EXTT13=
EXTT14=
EXTT15=
EXTT16=
EXTT17=
PLAYORDER=
